<?xml version="1.0" encoding="UTF-8" standalone="no"?><!DOCTYPE svg PUBLIC "-//W3C//DTD SVG 1.1//EN" "http://www.w3.org/Graphics/SVG/1.1/DTD/svg11.dtd"><svg width="100%" height="100%" viewBox="0 0 3768 3768" version="1.1" xmlns="http://www.w3.org/2000/svg" xmlns:xlink="http://www.w3.org/1999/xlink" xml:space="preserve" xmlns:serif="http://www.serif.com/" style="fill-rule:evenodd;clip-rule:evenodd;stroke-linejoin:round;stroke-miterlimit:2;"><path d="M1883.83,0c1039.71,0 1883.83,844.114 1883.83,1883.83c-0,1039.71 -844.115,1883.83 -1883.83,1883.83c-1039.71,-0 -1883.83,-844.115 -1883.83,-1883.83c0,-1039.71 844.114,-1883.83 1883.83,-1883.83Zm973.584,3044.82l-790.529,-0l-0,-263.51l790.529,0l-0,263.51Zm-1054.02,-0l-790.529,-0l-0,-263.51l790.529,0l-0,263.51Zm1317.65,-1054.05l0,790.528l-263.509,0l-0,-790.528l263.509,-0Zm-1317.53,-0l-0,790.528l263.509,0l0,-790.528l790.448,-0l0,-263.51l-790.528,0l-0,263.51l-263.429,-0Zm-0.064,-263.393l263.483,0l-0,-790.529l-263.51,0l0,790.412l-790.502,0l0,263.51l790.529,-0l0,-263.393Zm-1054.05,-790.529l0,790.529l263.51,0l-0,-790.529l-263.51,0Zm2108.07,-263.626l-790.528,-0l-0,263.509l790.528,0l0,-263.509Zm-1054.02,-0l-790.529,-0l0,263.509l790.529,0l0,-263.509Z" style="fill:#e7c1bf;"/></svg>